<svg width="756" height="193" viewBox="0 0 756 193" fill="none" xmlns="http://www.w3.org/2000/svg">
<path fill-rule="evenodd" clip-rule="evenodd" d="M8.90144 41.767C-0.540133 48.378 -2.83472 61.3913 3.77634 70.8328L56.446 146.053C63.0571 155.494 76.0703 157.789 85.5119 151.178L99.96 141.061L70.5594 99.0731C63.9484 89.6315 66.243 76.6183 75.6845 70.0072L109.104 46.6068L85.8346 13.375C79.2236 3.93343 66.2103 1.63886 56.7688 8.24992L8.90144 41.767Z" fill="#FAFAFC"/>
<rect x="75.2849" y="86.1517" width="100.175" height="133.566" rx="20.8697" transform="rotate(-35 75.2849 86.1517)" fill="#FAFAFC"/>
<path d="M331.076 148.023C345.236 148.023 357.518 140.509 363.731 129.239L347.548 119.991C344.658 125.916 338.445 129.528 330.932 129.528C319.806 129.528 311.57 121.292 311.57 109.877C311.57 98.3176 319.806 90.0816 330.932 90.0816C338.301 90.0816 344.514 93.8384 347.404 99.7626L363.442 90.3706C357.518 79.2447 345.236 71.7311 331.076 71.7311C309.113 71.7311 292.93 88.3477 292.93 109.877C292.93 131.406 309.113 148.023 331.076 148.023ZM413.758 71.7311C404.077 71.7311 396.564 75.3434 392.229 81.8456V44.8556H373.589V146H392.229V106.987C392.229 94.4164 399.02 89.0702 408.123 89.0702C416.504 89.0702 422.428 94.1274 422.428 103.953V146H441.067V101.641C441.067 82.4235 429.074 71.7311 413.758 71.7311ZM511.89 73.754V82.279C506.688 75.7769 498.885 71.7311 488.338 71.7311C469.12 71.7311 453.226 88.3477 453.226 109.877C453.226 131.406 469.12 148.023 488.338 148.023C498.885 148.023 506.688 143.977 511.89 137.475V146H530.529V73.754H511.89ZM491.805 130.25C480.39 130.25 471.865 122.014 471.865 109.877C471.865 97.7397 480.39 89.5036 491.805 89.5036C503.365 89.5036 511.89 97.7397 511.89 109.877C511.89 122.014 503.365 130.25 491.805 130.25ZM556.679 65.0845C563.036 65.0845 568.238 59.8828 568.238 53.6696C568.238 47.4565 563.036 42.1103 556.679 42.1103C550.466 42.1103 545.264 47.4565 545.264 53.6696C545.264 59.8828 550.466 65.0845 556.679 65.0845ZM547.431 146H566.071V73.754H547.431V146ZM623.3 71.7311C613.619 71.7311 606.105 75.3434 601.77 81.8456V73.754H583.131V146H601.77V106.987C601.77 94.4164 608.562 89.0702 617.665 89.0702C626.045 89.0702 631.969 94.1274 631.969 103.953V146H650.609V101.641C650.609 82.4235 638.616 71.7311 623.3 71.7311ZM682.274 117.535H736.747C737.181 115.079 737.47 112.622 737.47 109.877C737.47 88.6367 722.298 71.7311 700.913 71.7311C678.228 71.7311 662.768 88.3477 662.768 109.877C662.768 131.406 678.084 148.023 702.358 148.023C716.23 148.023 727.066 142.388 733.858 132.562L718.83 123.893C715.652 128.083 709.872 131.117 702.647 131.117C692.822 131.117 684.875 127.072 682.274 117.535ZM681.985 103.086C684.152 93.8384 690.944 88.4922 700.913 88.4922C708.716 88.4922 716.519 92.6825 718.83 103.086H681.985Z" fill="#FAFAFC"/>
</svg>
