<svg width="349" height="326" viewBox="0 0 349 326" fill="none" xmlns="http://www.w3.org/2000/svg">
<circle cx="163" cy="163" r="160.5" fill="#7DE77B" stroke="black" stroke-width="5"/>
<circle cx="162" cy="165" r="113.5" fill="#FFFD54" fill-opacity="0.65" stroke="black" stroke-width="5"/>
<circle cx="161.5" cy="167.5" r="55" fill="#FFFD54" stroke="black" stroke-width="5"/>
<path d="M143.492 157.766C143.492 158.557 143.393 159.276 143.195 159.922C143.003 160.568 142.698 161.12 142.281 161.578C141.87 162.031 141.341 162.383 140.695 162.633C140.049 162.878 139.276 163 138.375 163H135.781V152.789H138.805C139.586 152.789 140.268 152.888 140.852 153.086C141.44 153.279 141.93 153.578 142.32 153.984C142.711 154.391 143.003 154.906 143.195 155.531C143.393 156.156 143.492 156.901 143.492 157.766ZM141.43 157.891C141.43 157.339 141.385 156.846 141.297 156.414C141.208 155.982 141.057 155.617 140.844 155.32C140.635 155.018 140.354 154.789 140 154.633C139.646 154.477 139.206 154.398 138.68 154.398H137.703V161.391H138.547C139.49 161.391 140.206 161.109 140.695 160.547C141.185 159.984 141.43 159.099 141.43 157.891ZM152.141 158.969C152.141 159.594 152.052 160.167 151.875 160.688C151.698 161.203 151.443 161.646 151.109 162.016C150.776 162.385 150.367 162.672 149.883 162.875C149.398 163.078 148.846 163.18 148.227 163.18C147.638 163.18 147.112 163.094 146.648 162.922C146.185 162.75 145.792 162.495 145.469 162.156C145.146 161.812 144.898 161.385 144.727 160.875C144.555 160.359 144.469 159.76 144.469 159.078C144.469 158.448 144.557 157.875 144.734 157.359C144.917 156.844 145.174 156.404 145.508 156.039C145.846 155.674 146.258 155.393 146.742 155.195C147.227 154.992 147.773 154.891 148.383 154.891C148.977 154.891 149.505 154.979 149.969 155.156C150.432 155.328 150.826 155.586 151.148 155.93C151.471 156.273 151.716 156.701 151.883 157.211C152.055 157.716 152.141 158.302 152.141 158.969ZM150.156 159.016C150.156 158.193 150 157.576 149.688 157.164C149.38 156.747 148.924 156.539 148.32 156.539C147.987 156.539 147.703 156.604 147.469 156.734C147.234 156.865 147.042 157.044 146.891 157.273C146.74 157.497 146.628 157.76 146.555 158.062C146.487 158.365 146.453 158.688 146.453 159.031C146.453 159.859 146.62 160.484 146.953 160.906C147.286 161.323 147.742 161.531 148.32 161.531C148.638 161.531 148.914 161.469 149.148 161.344C149.383 161.214 149.573 161.036 149.719 160.812C149.865 160.583 149.974 160.315 150.047 160.008C150.12 159.701 150.156 159.37 150.156 159.016ZM159.391 163V157.594C159.391 157.396 159.385 157.224 159.375 157.078C159.365 156.927 159.344 156.802 159.312 156.703C159.281 156.604 159.234 156.531 159.172 156.484C159.115 156.432 159.034 156.406 158.93 156.406C158.768 156.406 158.609 156.516 158.453 156.734C158.297 156.953 158.12 157.326 157.922 157.852V163H156.289V157.594C156.289 157.396 156.284 157.224 156.273 157.078C156.263 156.927 156.242 156.802 156.211 156.703C156.18 156.604 156.133 156.531 156.07 156.484C156.008 156.432 155.924 156.406 155.82 156.406C155.685 156.406 155.534 156.516 155.367 156.734C155.201 156.953 155.016 157.326 154.812 157.852V163H153.164V155.062H154.578L154.609 156.219C154.724 155.984 154.839 155.784 154.953 155.617C155.068 155.451 155.19 155.315 155.32 155.211C155.451 155.102 155.589 155.023 155.734 154.977C155.885 154.93 156.055 154.906 156.242 154.906C156.685 154.906 157.021 155.023 157.25 155.258C157.484 155.487 157.617 155.807 157.648 156.219C157.773 155.984 157.896 155.784 158.016 155.617C158.141 155.451 158.268 155.315 158.398 155.211C158.534 155.102 158.677 155.023 158.828 154.977C158.984 154.93 159.156 154.906 159.344 154.906C159.922 154.906 160.349 155.109 160.625 155.516C160.901 155.917 161.039 156.513 161.039 157.305V163H159.391ZM167.562 163L167.516 161.961C167.349 162.138 167.174 162.302 166.992 162.453C166.81 162.599 166.609 162.727 166.391 162.836C166.172 162.945 165.932 163.029 165.672 163.086C165.417 163.148 165.135 163.18 164.828 163.18C164.422 163.18 164.065 163.12 163.758 163C163.451 162.88 163.193 162.714 162.984 162.5C162.776 162.286 162.617 162.029 162.508 161.727C162.404 161.424 162.352 161.091 162.352 160.727C162.352 160.352 162.43 160.005 162.586 159.688C162.747 159.37 162.99 159.096 163.312 158.867C163.641 158.638 164.047 158.458 164.531 158.328C165.021 158.198 165.594 158.133 166.25 158.133H167.289V157.656C167.289 157.453 167.26 157.271 167.203 157.109C167.146 156.943 167.052 156.802 166.922 156.688C166.797 156.573 166.633 156.484 166.43 156.422C166.227 156.359 165.977 156.328 165.68 156.328C165.211 156.328 164.747 156.383 164.289 156.492C163.836 156.596 163.396 156.745 162.969 156.938V155.414C163.349 155.263 163.786 155.138 164.281 155.039C164.781 154.94 165.299 154.891 165.836 154.891C166.424 154.891 166.93 154.948 167.352 155.062C167.773 155.172 168.12 155.339 168.391 155.562C168.667 155.786 168.87 156.068 169 156.406C169.13 156.74 169.195 157.13 169.195 157.578V163H167.562ZM167.289 159.492H166.125C165.802 159.492 165.529 159.523 165.305 159.586C165.081 159.648 164.898 159.734 164.758 159.844C164.617 159.953 164.513 160.081 164.445 160.227C164.383 160.367 164.352 160.518 164.352 160.68C164.352 161.003 164.456 161.25 164.664 161.422C164.872 161.589 165.156 161.672 165.516 161.672C165.781 161.672 166.057 161.576 166.344 161.383C166.63 161.19 166.945 160.914 167.289 160.555V159.492ZM176.055 152.891C176.055 153.062 176.023 153.224 175.961 153.375C175.898 153.526 175.81 153.659 175.695 153.773C175.586 153.883 175.456 153.971 175.305 154.039C175.154 154.102 174.99 154.133 174.812 154.133C174.635 154.133 174.469 154.102 174.312 154.039C174.161 153.971 174.029 153.883 173.914 153.773C173.805 153.659 173.719 153.526 173.656 153.375C173.594 153.224 173.562 153.062 173.562 152.891C173.562 152.719 173.594 152.557 173.656 152.406C173.719 152.255 173.805 152.122 173.914 152.008C174.029 151.893 174.161 151.805 174.312 151.742C174.469 151.674 174.635 151.641 174.812 151.641C174.99 151.641 175.154 151.674 175.305 151.742C175.456 151.805 175.586 151.893 175.695 152.008C175.81 152.122 175.898 152.255 175.961 152.406C176.023 152.557 176.055 152.719 176.055 152.891ZM173.945 156.547H171.703V155.062H175.898V161.516H178.188V163H171.43V161.516H173.945V156.547ZM184.914 163V157.828C184.914 156.958 184.591 156.523 183.945 156.523C183.622 156.523 183.312 156.654 183.016 156.914C182.724 157.174 182.414 157.529 182.086 157.977V163H180.18V155.062H181.828L181.875 156.234C182.036 156.031 182.203 155.846 182.375 155.68C182.552 155.513 182.742 155.372 182.945 155.258C183.148 155.138 183.367 155.047 183.602 154.984C183.836 154.922 184.099 154.891 184.391 154.891C184.797 154.891 185.151 154.958 185.453 155.094C185.755 155.224 186.008 155.411 186.211 155.656C186.414 155.896 186.565 156.188 186.664 156.531C186.768 156.87 186.82 157.25 186.82 157.672V163H184.914ZM141.047 182V171.789H143V180.352H147.312V182H141.047ZM154.367 182L154.32 180.961C154.154 181.138 153.979 181.302 153.797 181.453C153.615 181.599 153.414 181.727 153.195 181.836C152.977 181.945 152.737 182.029 152.477 182.086C152.221 182.148 151.94 182.18 151.633 182.18C151.227 182.18 150.87 182.12 150.562 182C150.255 181.88 149.997 181.714 149.789 181.5C149.581 181.286 149.422 181.029 149.312 180.727C149.208 180.424 149.156 180.091 149.156 179.727C149.156 179.352 149.234 179.005 149.391 178.688C149.552 178.37 149.794 178.096 150.117 177.867C150.445 177.638 150.852 177.458 151.336 177.328C151.826 177.198 152.398 177.133 153.055 177.133H154.094V176.656C154.094 176.453 154.065 176.271 154.008 176.109C153.951 175.943 153.857 175.802 153.727 175.688C153.602 175.573 153.438 175.484 153.234 175.422C153.031 175.359 152.781 175.328 152.484 175.328C152.016 175.328 151.552 175.383 151.094 175.492C150.641 175.596 150.201 175.745 149.773 175.938V174.414C150.154 174.263 150.591 174.138 151.086 174.039C151.586 173.94 152.104 173.891 152.641 173.891C153.229 173.891 153.734 173.948 154.156 174.062C154.578 174.172 154.924 174.339 155.195 174.562C155.471 174.786 155.674 175.068 155.805 175.406C155.935 175.74 156 176.13 156 176.578V182H154.367ZM154.094 178.492H152.93C152.607 178.492 152.333 178.523 152.109 178.586C151.885 178.648 151.703 178.734 151.562 178.844C151.422 178.953 151.318 179.081 151.25 179.227C151.188 179.367 151.156 179.518 151.156 179.68C151.156 180.003 151.26 180.25 151.469 180.422C151.677 180.589 151.961 180.672 152.32 180.672C152.586 180.672 152.862 180.576 153.148 180.383C153.435 180.19 153.75 179.914 154.094 179.555V178.492ZM162.961 181.133C162.685 181.82 162.396 182.422 162.094 182.938C161.797 183.458 161.469 183.891 161.109 184.234C160.75 184.583 160.349 184.844 159.906 185.016C159.469 185.193 158.977 185.281 158.43 185.281C158.299 185.281 158.156 185.273 158 185.258C157.849 185.247 157.693 185.229 157.531 185.203V183.586C157.594 183.596 157.664 183.607 157.742 183.617C157.826 183.633 157.911 183.643 158 183.648C158.089 183.659 158.177 183.667 158.266 183.672C158.359 183.677 158.445 183.68 158.523 183.68C158.742 183.68 158.945 183.638 159.133 183.555C159.32 183.471 159.492 183.354 159.648 183.203C159.81 183.057 159.956 182.88 160.086 182.672C160.216 182.469 160.331 182.245 160.43 182L157.281 174.062H159.406L161.055 178.562L161.547 180.016L162.031 178.625L163.695 174.062H165.742L162.961 181.133ZM173.898 177.422C173.898 177.552 173.893 177.721 173.883 177.93C173.878 178.138 173.867 178.333 173.852 178.516H168.633C168.633 178.865 168.685 179.172 168.789 179.438C168.898 179.703 169.049 179.927 169.242 180.109C169.44 180.286 169.674 180.422 169.945 180.516C170.221 180.609 170.526 180.656 170.859 180.656C171.245 180.656 171.656 180.628 172.094 180.57C172.536 180.508 172.995 180.409 173.469 180.273V181.789C173.266 181.846 173.044 181.898 172.805 181.945C172.565 181.992 172.32 182.034 172.07 182.07C171.82 182.107 171.568 182.133 171.312 182.148C171.057 182.169 170.81 182.18 170.57 182.18C169.966 182.18 169.424 182.094 168.945 181.922C168.466 181.75 168.06 181.497 167.727 181.164C167.393 180.826 167.138 180.409 166.961 179.914C166.784 179.419 166.695 178.846 166.695 178.195C166.695 177.549 166.784 176.964 166.961 176.438C167.138 175.906 167.388 175.453 167.711 175.078C168.034 174.698 168.424 174.406 168.883 174.203C169.346 173.995 169.862 173.891 170.43 173.891C170.992 173.891 171.49 173.979 171.922 174.156C172.354 174.328 172.716 174.57 173.008 174.883C173.299 175.195 173.521 175.568 173.672 176C173.823 176.432 173.898 176.906 173.898 177.422ZM171.961 177.148C171.966 176.836 171.927 176.565 171.844 176.336C171.76 176.102 171.646 175.909 171.5 175.758C171.359 175.607 171.193 175.495 171 175.422C170.812 175.349 170.609 175.312 170.391 175.312C169.911 175.312 169.518 175.474 169.211 175.797C168.904 176.115 168.721 176.565 168.664 177.148H171.961ZM180.891 177.148C180.901 176.852 180.885 176.599 180.844 176.391C180.807 176.182 180.745 176.01 180.656 175.875C180.573 175.74 180.469 175.641 180.344 175.578C180.219 175.516 180.076 175.484 179.914 175.484C179.633 175.484 179.341 175.602 179.039 175.836C178.742 176.065 178.414 176.445 178.055 176.977V182H176.102V174.062H177.828L177.898 175.219C178.029 175.016 178.174 174.833 178.336 174.672C178.503 174.51 178.685 174.372 178.883 174.258C179.086 174.138 179.31 174.047 179.555 173.984C179.799 173.922 180.068 173.891 180.359 173.891C180.76 173.891 181.115 173.961 181.422 174.102C181.734 174.237 181.995 174.44 182.203 174.711C182.417 174.982 182.573 175.323 182.672 175.734C182.776 176.141 182.82 176.612 182.805 177.148H180.891Z" fill="black"/>
<path d="M118.289 26.3594V24.7891H124.742V26.3594H122.492V33.4141H124.742V35H118.289V33.4141H120.539V26.3594H118.289ZM131.734 35V29.8281C131.734 28.9583 131.411 28.5234 130.766 28.5234C130.443 28.5234 130.133 28.6536 129.836 28.9141C129.544 29.1745 129.234 29.5286 128.906 29.9766V35H127V27.0625H128.648L128.695 28.2344C128.857 28.0312 129.023 27.8464 129.195 27.6797C129.372 27.513 129.562 27.3724 129.766 27.2578C129.969 27.138 130.188 27.0469 130.422 26.9844C130.656 26.9219 130.919 26.8906 131.211 26.8906C131.617 26.8906 131.971 26.9583 132.273 27.0938C132.576 27.224 132.828 27.4115 133.031 27.6562C133.234 27.8958 133.385 28.1875 133.484 28.5312C133.589 28.8698 133.641 29.25 133.641 29.6719V35H131.734ZM142.922 25.5781C142.693 25.5052 142.419 25.4453 142.102 25.3984C141.789 25.3464 141.469 25.3203 141.141 25.3203C140.917 25.3203 140.708 25.3516 140.516 25.4141C140.323 25.4714 140.156 25.5651 140.016 25.6953C139.875 25.8255 139.763 25.9922 139.68 26.1953C139.602 26.3932 139.562 26.6354 139.562 26.9219V28.2031H142.68V29.6875H139.562V35H137.641V29.6875H135.336V28.2031H137.641V27C137.641 26.4375 137.721 25.9557 137.883 25.5547C138.049 25.1484 138.281 24.8177 138.578 24.5625C138.88 24.3021 139.242 24.112 139.664 23.9922C140.086 23.8724 140.557 23.8125 141.078 23.8125C141.422 23.8125 141.747 23.8359 142.055 23.8828C142.367 23.9245 142.656 23.9766 142.922 24.0391V25.5781ZM149.703 30.1484C149.714 29.8516 149.698 29.599 149.656 29.3906C149.62 29.1823 149.557 29.0104 149.469 28.875C149.385 28.7396 149.281 28.6406 149.156 28.5781C149.031 28.5156 148.888 28.4844 148.727 28.4844C148.445 28.4844 148.154 28.6016 147.852 28.8359C147.555 29.0651 147.227 29.4453 146.867 29.9766V35H144.914V27.0625H146.641L146.711 28.2188C146.841 28.0156 146.987 27.8333 147.148 27.6719C147.315 27.5104 147.497 27.3724 147.695 27.2578C147.898 27.138 148.122 27.0469 148.367 26.9844C148.612 26.9219 148.88 26.8906 149.172 26.8906C149.573 26.8906 149.927 26.9609 150.234 27.1016C150.547 27.237 150.807 27.4401 151.016 27.7109C151.229 27.9818 151.385 28.3229 151.484 28.7344C151.589 29.1406 151.633 29.612 151.617 30.1484H149.703ZM158.367 35L158.32 33.9609C158.154 34.138 157.979 34.3021 157.797 34.4531C157.615 34.599 157.414 34.7266 157.195 34.8359C156.977 34.9453 156.737 35.0286 156.477 35.0859C156.221 35.1484 155.94 35.1797 155.633 35.1797C155.227 35.1797 154.87 35.1198 154.562 35C154.255 34.8802 153.997 34.7135 153.789 34.5C153.581 34.2865 153.422 34.0286 153.312 33.7266C153.208 33.4245 153.156 33.0911 153.156 32.7266C153.156 32.3516 153.234 32.0052 153.391 31.6875C153.552 31.3698 153.794 31.0964 154.117 30.8672C154.445 30.638 154.852 30.4583 155.336 30.3281C155.826 30.1979 156.398 30.1328 157.055 30.1328H158.094V29.6562C158.094 29.4531 158.065 29.2708 158.008 29.1094C157.951 28.9427 157.857 28.8021 157.727 28.6875C157.602 28.5729 157.438 28.4844 157.234 28.4219C157.031 28.3594 156.781 28.3281 156.484 28.3281C156.016 28.3281 155.552 28.3828 155.094 28.4922C154.641 28.5964 154.201 28.7448 153.773 28.9375V27.4141C154.154 27.263 154.591 27.138 155.086 27.0391C155.586 26.9401 156.104 26.8906 156.641 26.8906C157.229 26.8906 157.734 26.9479 158.156 27.0625C158.578 27.1719 158.924 27.3385 159.195 27.5625C159.471 27.7865 159.674 28.0677 159.805 28.4062C159.935 28.7396 160 29.1302 160 29.5781V35H158.367ZM158.094 31.4922H156.93C156.607 31.4922 156.333 31.5234 156.109 31.5859C155.885 31.6484 155.703 31.7344 155.562 31.8438C155.422 31.9531 155.318 32.0807 155.25 32.2266C155.188 32.3672 155.156 32.5182 155.156 32.6797C155.156 33.0026 155.26 33.25 155.469 33.4219C155.677 33.5885 155.961 33.6719 156.32 33.6719C156.586 33.6719 156.862 33.5755 157.148 33.3828C157.435 33.1901 157.75 32.9141 158.094 32.5547V31.4922ZM171.438 35V24.7891H173.391V33.3516H177.703V35H171.438ZM184.758 35L184.711 33.9609C184.544 34.138 184.37 34.3021 184.188 34.4531C184.005 34.599 183.805 34.7266 183.586 34.8359C183.367 34.9453 183.128 35.0286 182.867 35.0859C182.612 35.1484 182.331 35.1797 182.023 35.1797C181.617 35.1797 181.26 35.1198 180.953 35C180.646 34.8802 180.388 34.7135 180.18 34.5C179.971 34.2865 179.812 34.0286 179.703 33.7266C179.599 33.4245 179.547 33.0911 179.547 32.7266C179.547 32.3516 179.625 32.0052 179.781 31.6875C179.943 31.3698 180.185 31.0964 180.508 30.8672C180.836 30.638 181.242 30.4583 181.727 30.3281C182.216 30.1979 182.789 30.1328 183.445 30.1328H184.484V29.6562C184.484 29.4531 184.456 29.2708 184.398 29.1094C184.341 28.9427 184.247 28.8021 184.117 28.6875C183.992 28.5729 183.828 28.4844 183.625 28.4219C183.422 28.3594 183.172 28.3281 182.875 28.3281C182.406 28.3281 181.943 28.3828 181.484 28.4922C181.031 28.5964 180.591 28.7448 180.164 28.9375V27.4141C180.544 27.263 180.982 27.138 181.477 27.0391C181.977 26.9401 182.495 26.8906 183.031 26.8906C183.62 26.8906 184.125 26.9479 184.547 27.0625C184.969 27.1719 185.315 27.3385 185.586 27.5625C185.862 27.7865 186.065 28.0677 186.195 28.4062C186.326 28.7396 186.391 29.1302 186.391 29.5781V35H184.758ZM184.484 31.4922H183.32C182.997 31.4922 182.724 31.5234 182.5 31.5859C182.276 31.6484 182.094 31.7344 181.953 31.8438C181.812 31.9531 181.708 32.0807 181.641 32.2266C181.578 32.3672 181.547 32.5182 181.547 32.6797C181.547 33.0026 181.651 33.25 181.859 33.4219C182.068 33.5885 182.352 33.6719 182.711 33.6719C182.977 33.6719 183.253 33.5755 183.539 33.3828C183.826 33.1901 184.141 32.9141 184.484 32.5547V31.4922ZM193.352 34.1328C193.076 34.8203 192.786 35.4219 192.484 35.9375C192.188 36.4583 191.859 36.8906 191.5 37.2344C191.141 37.5833 190.74 37.8438 190.297 38.0156C189.859 38.1927 189.367 38.2812 188.82 38.2812C188.69 38.2812 188.547 38.2734 188.391 38.2578C188.24 38.2474 188.083 38.2292 187.922 38.2031V36.5859C187.984 36.5964 188.055 36.6068 188.133 36.6172C188.216 36.6328 188.302 36.6432 188.391 36.6484C188.479 36.6589 188.568 36.6667 188.656 36.6719C188.75 36.6771 188.836 36.6797 188.914 36.6797C189.133 36.6797 189.336 36.638 189.523 36.5547C189.711 36.4714 189.883 36.3542 190.039 36.2031C190.201 36.0573 190.346 35.8802 190.477 35.6719C190.607 35.4688 190.721 35.2448 190.82 35L187.672 27.0625H189.797L191.445 31.5625L191.938 33.0156L192.422 31.625L194.086 27.0625H196.133L193.352 34.1328ZM204.289 30.4219C204.289 30.5521 204.284 30.7214 204.273 30.9297C204.268 31.138 204.258 31.3333 204.242 31.5156H199.023C199.023 31.8646 199.076 32.1719 199.18 32.4375C199.289 32.7031 199.44 32.9271 199.633 33.1094C199.831 33.2865 200.065 33.4219 200.336 33.5156C200.612 33.6094 200.917 33.6562 201.25 33.6562C201.635 33.6562 202.047 33.6276 202.484 33.5703C202.927 33.5078 203.385 33.4089 203.859 33.2734V34.7891C203.656 34.8464 203.435 34.8984 203.195 34.9453C202.956 34.9922 202.711 35.0339 202.461 35.0703C202.211 35.1068 201.958 35.1328 201.703 35.1484C201.448 35.1693 201.201 35.1797 200.961 35.1797C200.357 35.1797 199.815 35.0938 199.336 34.9219C198.857 34.75 198.451 34.4974 198.117 34.1641C197.784 33.8255 197.529 33.4089 197.352 32.9141C197.174 32.4193 197.086 31.8464 197.086 31.1953C197.086 30.5495 197.174 29.9635 197.352 29.4375C197.529 28.9062 197.779 28.4531 198.102 28.0781C198.424 27.6979 198.815 27.4062 199.273 27.2031C199.737 26.9948 200.253 26.8906 200.82 26.8906C201.383 26.8906 201.88 26.9792 202.312 27.1562C202.745 27.3281 203.107 27.5703 203.398 27.8828C203.69 28.1953 203.911 28.5677 204.062 29C204.214 29.4323 204.289 29.9062 204.289 30.4219ZM202.352 30.1484C202.357 29.8359 202.318 29.5651 202.234 29.3359C202.151 29.1016 202.036 28.9089 201.891 28.7578C201.75 28.6068 201.583 28.4948 201.391 28.4219C201.203 28.349 201 28.3125 200.781 28.3125C200.302 28.3125 199.909 28.474 199.602 28.7969C199.294 29.1146 199.112 29.5651 199.055 30.1484H202.352ZM211.281 30.1484C211.292 29.8516 211.276 29.599 211.234 29.3906C211.198 29.1823 211.135 29.0104 211.047 28.875C210.964 28.7396 210.859 28.6406 210.734 28.5781C210.609 28.5156 210.466 28.4844 210.305 28.4844C210.023 28.4844 209.732 28.6016 209.43 28.8359C209.133 29.0651 208.805 29.4453 208.445 29.9766V35H206.492V27.0625H208.219L208.289 28.2188C208.419 28.0156 208.565 27.8333 208.727 27.6719C208.893 27.5104 209.076 27.3724 209.273 27.2578C209.477 27.138 209.701 27.0469 209.945 26.9844C210.19 26.9219 210.458 26.8906 210.75 26.8906C211.151 26.8906 211.505 26.9609 211.812 27.1016C212.125 27.237 212.385 27.4401 212.594 27.7109C212.807 27.9818 212.964 28.3229 213.062 28.7344C213.167 29.1406 213.211 29.612 213.195 30.1484H211.281Z" fill="black"/>
<path d="M120.859 79L120.297 76.9844H116.734L116.156 79H114.25L117.273 68.7891H119.961L122.984 79H120.859ZM118.539 70.6641L117.195 75.4141H119.867L118.539 70.6641ZM131.242 74.8906C131.242 75.6198 131.138 76.25 130.93 76.7812C130.727 77.3125 130.44 77.7552 130.07 78.1094C129.706 78.4583 129.273 78.7188 128.773 78.8906C128.273 79.0573 127.729 79.1406 127.141 79.1406C126.943 79.1406 126.745 79.1276 126.547 79.1016C126.349 79.0755 126.169 79.0417 126.008 79V82.1016H124.102V71.0625H125.75L125.797 72.2344C125.958 72.0312 126.125 71.8464 126.297 71.6797C126.474 71.513 126.664 71.3724 126.867 71.2578C127.07 71.138 127.289 71.0469 127.523 70.9844C127.758 70.9219 128.021 70.8906 128.312 70.8906C128.781 70.8906 129.198 70.9844 129.562 71.1719C129.927 71.3594 130.232 71.6276 130.477 71.9766C130.727 72.3203 130.917 72.7396 131.047 73.2344C131.177 73.724 131.242 74.276 131.242 74.8906ZM129.242 74.9688C129.242 74.5312 129.211 74.1589 129.148 73.8516C129.086 73.5443 128.995 73.2917 128.875 73.0938C128.76 72.8958 128.617 72.7526 128.445 72.6641C128.279 72.5703 128.086 72.5234 127.867 72.5234C127.544 72.5234 127.234 72.6536 126.938 72.9141C126.646 73.1745 126.336 73.5286 126.008 73.9766V77.4453C126.159 77.5026 126.344 77.5495 126.562 77.5859C126.786 77.6224 127.013 77.6406 127.242 77.6406C127.544 77.6406 127.818 77.5781 128.062 77.4531C128.312 77.3281 128.523 77.151 128.695 76.9219C128.872 76.6927 129.008 76.4141 129.102 76.0859C129.195 75.7526 129.242 75.3802 129.242 74.9688ZM140.039 74.8906C140.039 75.6198 139.935 76.25 139.727 76.7812C139.523 77.3125 139.237 77.7552 138.867 78.1094C138.503 78.4583 138.07 78.7188 137.57 78.8906C137.07 79.0573 136.526 79.1406 135.938 79.1406C135.74 79.1406 135.542 79.1276 135.344 79.1016C135.146 79.0755 134.966 79.0417 134.805 79V82.1016H132.898V71.0625H134.547L134.594 72.2344C134.755 72.0312 134.922 71.8464 135.094 71.6797C135.271 71.513 135.461 71.3724 135.664 71.2578C135.867 71.138 136.086 71.0469 136.32 70.9844C136.555 70.9219 136.818 70.8906 137.109 70.8906C137.578 70.8906 137.995 70.9844 138.359 71.1719C138.724 71.3594 139.029 71.6276 139.273 71.9766C139.523 72.3203 139.714 72.7396 139.844 73.2344C139.974 73.724 140.039 74.276 140.039 74.8906ZM138.039 74.9688C138.039 74.5312 138.008 74.1589 137.945 73.8516C137.883 73.5443 137.792 73.2917 137.672 73.0938C137.557 72.8958 137.414 72.7526 137.242 72.6641C137.076 72.5703 136.883 72.5234 136.664 72.5234C136.341 72.5234 136.031 72.6536 135.734 72.9141C135.443 73.1745 135.133 73.5286 134.805 73.9766V77.4453C134.956 77.5026 135.141 77.5495 135.359 77.5859C135.583 77.6224 135.81 77.6406 136.039 77.6406C136.341 77.6406 136.615 77.5781 136.859 77.4531C137.109 77.3281 137.32 77.151 137.492 76.9219C137.669 76.6927 137.805 76.4141 137.898 76.0859C137.992 75.7526 138.039 75.3802 138.039 74.9688ZM144.258 69.4453H142.016V67.9609H146.211V77.5156H148.5V79H141.742V77.5156H144.258V69.4453ZM155.164 68.8906C155.164 69.0625 155.133 69.224 155.07 69.375C155.008 69.526 154.919 69.6589 154.805 69.7734C154.695 69.8828 154.565 69.9714 154.414 70.0391C154.263 70.1016 154.099 70.1328 153.922 70.1328C153.745 70.1328 153.578 70.1016 153.422 70.0391C153.271 69.9714 153.138 69.8828 153.023 69.7734C152.914 69.6589 152.828 69.526 152.766 69.375C152.703 69.224 152.672 69.0625 152.672 68.8906C152.672 68.7188 152.703 68.5573 152.766 68.4062C152.828 68.2552 152.914 68.1224 153.023 68.0078C153.138 67.8932 153.271 67.8047 153.422 67.7422C153.578 67.6745 153.745 67.6406 153.922 67.6406C154.099 67.6406 154.263 67.6745 154.414 67.7422C154.565 67.8047 154.695 67.8932 154.805 68.0078C154.919 68.1224 155.008 68.2552 155.07 68.4062C155.133 68.5573 155.164 68.7188 155.164 68.8906ZM153.055 72.5469H150.812V71.0625H155.008V77.5156H157.297V79H150.539V77.5156H153.055V72.5469ZM165.711 78.6953C165.336 78.8464 164.948 78.9583 164.547 79.0312C164.146 79.1042 163.727 79.1406 163.289 79.1406C162.659 79.1406 162.094 79.0547 161.594 78.8828C161.094 78.7109 160.669 78.4557 160.32 78.1172C159.971 77.7786 159.703 77.3594 159.516 76.8594C159.333 76.3594 159.242 75.7812 159.242 75.125C159.242 74.4896 159.341 73.9141 159.539 73.3984C159.742 72.8828 160.026 72.4427 160.391 72.0781C160.755 71.7135 161.193 71.4323 161.703 71.2344C162.219 71.0365 162.792 70.9375 163.422 70.9375C163.938 70.9375 164.37 70.9661 164.719 71.0234C165.073 71.0755 165.391 71.1432 165.672 71.2266V73.0781C165.349 72.9167 164.997 72.7917 164.617 72.7031C164.242 72.6146 163.885 72.5703 163.547 72.5703C163.193 72.5703 162.875 72.6302 162.594 72.75C162.312 72.8698 162.076 73.0365 161.883 73.25C161.69 73.4635 161.542 73.724 161.438 74.0312C161.339 74.3333 161.289 74.6667 161.289 75.0312C161.289 75.4115 161.344 75.7526 161.453 76.0547C161.562 76.3568 161.716 76.6146 161.914 76.8281C162.117 77.0365 162.359 77.1979 162.641 77.3125C162.922 77.4219 163.234 77.4766 163.578 77.4766C163.745 77.4766 163.919 77.4661 164.102 77.4453C164.289 77.4193 164.474 77.3854 164.656 77.3438C164.844 77.2969 165.026 77.2448 165.203 77.1875C165.385 77.1302 165.555 77.0677 165.711 77V78.6953ZM173.062 79L173.016 77.9609C172.849 78.138 172.674 78.3021 172.492 78.4531C172.31 78.599 172.109 78.7266 171.891 78.8359C171.672 78.9453 171.432 79.0286 171.172 79.0859C170.917 79.1484 170.635 79.1797 170.328 79.1797C169.922 79.1797 169.565 79.1198 169.258 79C168.951 78.8802 168.693 78.7135 168.484 78.5C168.276 78.2865 168.117 78.0286 168.008 77.7266C167.904 77.4245 167.852 77.0911 167.852 76.7266C167.852 76.3516 167.93 76.0052 168.086 75.6875C168.247 75.3698 168.49 75.0964 168.812 74.8672C169.141 74.638 169.547 74.4583 170.031 74.3281C170.521 74.1979 171.094 74.1328 171.75 74.1328H172.789V73.6562C172.789 73.4531 172.76 73.2708 172.703 73.1094C172.646 72.9427 172.552 72.8021 172.422 72.6875C172.297 72.5729 172.133 72.4844 171.93 72.4219C171.727 72.3594 171.477 72.3281 171.18 72.3281C170.711 72.3281 170.247 72.3828 169.789 72.4922C169.336 72.5964 168.896 72.7448 168.469 72.9375V71.4141C168.849 71.263 169.286 71.138 169.781 71.0391C170.281 70.9401 170.799 70.8906 171.336 70.8906C171.924 70.8906 172.43 70.9479 172.852 71.0625C173.273 71.1719 173.62 71.3385 173.891 71.5625C174.167 71.7865 174.37 72.0677 174.5 72.4062C174.63 72.7396 174.695 73.1302 174.695 73.5781V79H173.062ZM172.789 75.4922H171.625C171.302 75.4922 171.029 75.5234 170.805 75.5859C170.581 75.6484 170.398 75.7344 170.258 75.8438C170.117 75.9531 170.013 76.0807 169.945 76.2266C169.883 76.3672 169.852 76.5182 169.852 76.6797C169.852 77.0026 169.956 77.25 170.164 77.4219C170.372 77.5885 170.656 77.6719 171.016 77.6719C171.281 77.6719 171.557 77.5755 171.844 77.3828C172.13 77.1901 172.445 76.9141 172.789 76.5547V75.4922ZM183.43 78.9219C183.086 79 182.74 79.0625 182.391 79.1094C182.042 79.1562 181.711 79.1797 181.398 79.1797C180.878 79.1797 180.427 79.125 180.047 79.0156C179.672 78.9062 179.359 78.7396 179.109 78.5156C178.865 78.2917 178.682 78.0078 178.562 77.6641C178.448 77.3151 178.391 76.901 178.391 76.4219V72.5469H176.258V71.0625H178.391V69.0312L180.344 68.5234V71.0625H183.43V72.5469H180.344V76.2812C180.344 76.7344 180.448 77.0781 180.656 77.3125C180.865 77.5417 181.214 77.6562 181.703 77.6562C182.016 77.6562 182.32 77.6302 182.617 77.5781C182.914 77.526 183.185 77.4661 183.43 77.3984V78.9219ZM190.352 68.8906C190.352 69.0625 190.32 69.224 190.258 69.375C190.195 69.526 190.107 69.6589 189.992 69.7734C189.883 69.8828 189.753 69.9714 189.602 70.0391C189.451 70.1016 189.286 70.1328 189.109 70.1328C188.932 70.1328 188.766 70.1016 188.609 70.0391C188.458 69.9714 188.326 69.8828 188.211 69.7734C188.102 69.6589 188.016 69.526 187.953 69.375C187.891 69.224 187.859 69.0625 187.859 68.8906C187.859 68.7188 187.891 68.5573 187.953 68.4062C188.016 68.2552 188.102 68.1224 188.211 68.0078C188.326 67.8932 188.458 67.8047 188.609 67.7422C188.766 67.6745 188.932 67.6406 189.109 67.6406C189.286 67.6406 189.451 67.6745 189.602 67.7422C189.753 67.8047 189.883 67.8932 189.992 68.0078C190.107 68.1224 190.195 68.2552 190.258 68.4062C190.32 68.5573 190.352 68.7188 190.352 68.8906ZM188.242 72.5469H186V71.0625H190.195V77.5156H192.484V79H185.727V77.5156H188.242V72.5469ZM201.625 74.9688C201.625 75.5938 201.536 76.1667 201.359 76.6875C201.182 77.2031 200.927 77.6458 200.594 78.0156C200.26 78.3854 199.852 78.6719 199.367 78.875C198.883 79.0781 198.331 79.1797 197.711 79.1797C197.122 79.1797 196.596 79.0938 196.133 78.9219C195.669 78.75 195.276 78.4948 194.953 78.1562C194.63 77.8125 194.383 77.3854 194.211 76.875C194.039 76.3594 193.953 75.7604 193.953 75.0781C193.953 74.4479 194.042 73.875 194.219 73.3594C194.401 72.8438 194.659 72.4036 194.992 72.0391C195.331 71.6745 195.742 71.3932 196.227 71.1953C196.711 70.9922 197.258 70.8906 197.867 70.8906C198.461 70.8906 198.99 70.9792 199.453 71.1562C199.917 71.3281 200.31 71.5859 200.633 71.9297C200.956 72.2734 201.201 72.7005 201.367 73.2109C201.539 73.7161 201.625 74.3021 201.625 74.9688ZM199.641 75.0156C199.641 74.1927 199.484 73.5755 199.172 73.1641C198.865 72.7474 198.409 72.5391 197.805 72.5391C197.471 72.5391 197.188 72.6042 196.953 72.7344C196.719 72.8646 196.526 73.0443 196.375 73.2734C196.224 73.4974 196.112 73.7604 196.039 74.0625C195.971 74.3646 195.938 74.6875 195.938 75.0312C195.938 75.8594 196.104 76.4844 196.438 76.9062C196.771 77.3229 197.227 77.5312 197.805 77.5312C198.122 77.5312 198.398 77.4688 198.633 77.3438C198.867 77.2135 199.057 77.0365 199.203 76.8125C199.349 76.5833 199.458 76.3151 199.531 76.0078C199.604 75.7005 199.641 75.3698 199.641 75.0156ZM208.008 79V73.8281C208.008 72.9583 207.685 72.5234 207.039 72.5234C206.716 72.5234 206.406 72.6536 206.109 72.9141C205.818 73.1745 205.508 73.5286 205.18 73.9766V79H203.273V71.0625H204.922L204.969 72.2344C205.13 72.0312 205.297 71.8464 205.469 71.6797C205.646 71.513 205.836 71.3724 206.039 71.2578C206.242 71.138 206.461 71.0469 206.695 70.9844C206.93 70.9219 207.193 70.8906 207.484 70.8906C207.891 70.8906 208.245 70.9583 208.547 71.0938C208.849 71.224 209.102 71.4115 209.305 71.6562C209.508 71.8958 209.659 72.1875 209.758 72.5312C209.862 72.8698 209.914 73.25 209.914 73.6719V79H208.008ZM146.547 98V87.7891H148.5V96.3516H152.812V98H146.547ZM159.867 98L159.82 96.9609C159.654 97.138 159.479 97.3021 159.297 97.4531C159.115 97.599 158.914 97.7266 158.695 97.8359C158.477 97.9453 158.237 98.0286 157.977 98.0859C157.721 98.1484 157.44 98.1797 157.133 98.1797C156.727 98.1797 156.37 98.1198 156.062 98C155.755 97.8802 155.497 97.7135 155.289 97.5C155.081 97.2865 154.922 97.0286 154.812 96.7266C154.708 96.4245 154.656 96.0911 154.656 95.7266C154.656 95.3516 154.734 95.0052 154.891 94.6875C155.052 94.3698 155.294 94.0964 155.617 93.8672C155.945 93.638 156.352 93.4583 156.836 93.3281C157.326 93.1979 157.898 93.1328 158.555 93.1328H159.594V92.6562C159.594 92.4531 159.565 92.2708 159.508 92.1094C159.451 91.9427 159.357 91.8021 159.227 91.6875C159.102 91.5729 158.938 91.4844 158.734 91.4219C158.531 91.3594 158.281 91.3281 157.984 91.3281C157.516 91.3281 157.052 91.3828 156.594 91.4922C156.141 91.5964 155.701 91.7448 155.273 91.9375V90.4141C155.654 90.263 156.091 90.138 156.586 90.0391C157.086 89.9401 157.604 89.8906 158.141 89.8906C158.729 89.8906 159.234 89.9479 159.656 90.0625C160.078 90.1719 160.424 90.3385 160.695 90.5625C160.971 90.7865 161.174 91.0677 161.305 91.4062C161.435 91.7396 161.5 92.1302 161.5 92.5781V98H159.867ZM159.594 94.4922H158.43C158.107 94.4922 157.833 94.5234 157.609 94.5859C157.385 94.6484 157.203 94.7344 157.062 94.8438C156.922 94.9531 156.818 95.0807 156.75 95.2266C156.688 95.3672 156.656 95.5182 156.656 95.6797C156.656 96.0026 156.76 96.25 156.969 96.4219C157.177 96.5885 157.461 96.6719 157.82 96.6719C158.086 96.6719 158.362 96.5755 158.648 96.3828C158.935 96.1901 159.25 95.9141 159.594 95.5547V94.4922ZM168.461 97.1328C168.185 97.8203 167.896 98.4219 167.594 98.9375C167.297 99.4583 166.969 99.8906 166.609 100.234C166.25 100.583 165.849 100.844 165.406 101.016C164.969 101.193 164.477 101.281 163.93 101.281C163.799 101.281 163.656 101.273 163.5 101.258C163.349 101.247 163.193 101.229 163.031 101.203V99.5859C163.094 99.5964 163.164 99.6068 163.242 99.6172C163.326 99.6328 163.411 99.6432 163.5 99.6484C163.589 99.6589 163.677 99.6667 163.766 99.6719C163.859 99.6771 163.945 99.6797 164.023 99.6797C164.242 99.6797 164.445 99.638 164.633 99.5547C164.82 99.4714 164.992 99.3542 165.148 99.2031C165.31 99.0573 165.456 98.8802 165.586 98.6719C165.716 98.4688 165.831 98.2448 165.93 98L162.781 90.0625H164.906L166.555 94.5625L167.047 96.0156L167.531 94.625L169.195 90.0625H171.242L168.461 97.1328ZM179.398 93.4219C179.398 93.5521 179.393 93.7214 179.383 93.9297C179.378 94.138 179.367 94.3333 179.352 94.5156H174.133C174.133 94.8646 174.185 95.1719 174.289 95.4375C174.398 95.7031 174.549 95.9271 174.742 96.1094C174.94 96.2865 175.174 96.4219 175.445 96.5156C175.721 96.6094 176.026 96.6562 176.359 96.6562C176.745 96.6562 177.156 96.6276 177.594 96.5703C178.036 96.5078 178.495 96.4089 178.969 96.2734V97.7891C178.766 97.8464 178.544 97.8984 178.305 97.9453C178.065 97.9922 177.82 98.0339 177.57 98.0703C177.32 98.1068 177.068 98.1328 176.812 98.1484C176.557 98.1693 176.31 98.1797 176.07 98.1797C175.466 98.1797 174.924 98.0938 174.445 97.9219C173.966 97.75 173.56 97.4974 173.227 97.1641C172.893 96.8255 172.638 96.4089 172.461 95.9141C172.284 95.4193 172.195 94.8464 172.195 94.1953C172.195 93.5495 172.284 92.9635 172.461 92.4375C172.638 91.9062 172.888 91.4531 173.211 91.0781C173.534 90.6979 173.924 90.4062 174.383 90.2031C174.846 89.9948 175.362 89.8906 175.93 89.8906C176.492 89.8906 176.99 89.9792 177.422 90.1562C177.854 90.3281 178.216 90.5703 178.508 90.8828C178.799 91.1953 179.021 91.5677 179.172 92C179.323 92.4323 179.398 92.9062 179.398 93.4219ZM177.461 93.1484C177.466 92.8359 177.427 92.5651 177.344 92.3359C177.26 92.1016 177.146 91.9089 177 91.7578C176.859 91.6068 176.693 91.4948 176.5 91.4219C176.312 91.349 176.109 91.3125 175.891 91.3125C175.411 91.3125 175.018 91.474 174.711 91.7969C174.404 92.1146 174.221 92.5651 174.164 93.1484H177.461ZM186.391 93.1484C186.401 92.8516 186.385 92.599 186.344 92.3906C186.307 92.1823 186.245 92.0104 186.156 91.875C186.073 91.7396 185.969 91.6406 185.844 91.5781C185.719 91.5156 185.576 91.4844 185.414 91.4844C185.133 91.4844 184.841 91.6016 184.539 91.8359C184.242 92.0651 183.914 92.4453 183.555 92.9766V98H181.602V90.0625H183.328L183.398 91.2188C183.529 91.0156 183.674 90.8333 183.836 90.6719C184.003 90.5104 184.185 90.3724 184.383 90.2578C184.586 90.138 184.81 90.0469 185.055 89.9844C185.299 89.9219 185.568 89.8906 185.859 89.8906C186.26 89.8906 186.615 89.9609 186.922 90.1016C187.234 90.237 187.495 90.4401 187.703 90.7109C187.917 90.9818 188.073 91.3229 188.172 91.7344C188.276 92.1406 188.32 92.612 188.305 93.1484H186.391Z" fill="black"/>
<path d="M190.939 167.939C190.354 168.525 190.354 169.475 190.939 170.061L200.485 179.607C201.071 180.192 202.021 180.192 202.607 179.607C203.192 179.021 203.192 178.071 202.607 177.485L194.121 169L202.607 160.515C203.192 159.929 203.192 158.979 202.607 158.393C202.021 157.808 201.071 157.808 200.485 158.393L190.939 167.939ZM349 167.5L192 167.5V170.5L349 170.5V167.5Z" fill="black"/>
</svg>
